<?xml version="1.0" encoding="UTF-8"?>
<!-- SPDX-License-Identifier: GPL-2.0-or-later -->
<!-- VACards Nesting tool: woven nest holding parts (matches cursor-nesting.svg). -->
<svg xmlns="http://www.w3.org/2000/svg" width="16" height="16" viewBox="0 0 16 16" fill="#000">
  <style>
@import '../../highlights.css';
  </style>
  <g id="tool-nesting">
    <!-- parts resting in the nest (secondary tone) -->
    <circle cx="5.6" cy="6.2" r="2.3" opacity="0.55"/>
    <path d="M8.2 7.9 10.6 3.4 13 7.9Z" opacity="0.55"/>
    <!-- rim: the ellipse of the nesting cursor -->
    <path fill-rule="evenodd" d="M8 6.9c3.6 0 6.5.9 6.5 2S11.6 10.9 8 10.9 1.5 10 1.5 8.9 4.4 6.9 8 6.9Zm0 1c-3.1 0-5.3.6-5.3 1s2.2 1 5.3 1 5.3-.6 5.3-1-2.2-1-5.3-1Z"/>
    <!-- woven bowl with diagonal weave gaps -->
    <path fill-rule="evenodd" d="M1.9 10.2c1.4 1 3.6 1.5 6.1 1.5s4.7-.5 6.1-1.5l-.7 2.5C12.5 14.3 10.4 15 8 15s-4.5-.7-5.4-2.3Z M4.2 12.6l1.2 1.7h.9l-1.2-1.7Z M7.3 12.9l1 1.9h.9l-1-1.9Z M10.3 12.5l.8 1.8h.8l-.8-1.8Z"/>
  </g>
</svg>
