<svg xmlns="http://www.w3.org/2000/svg" width="1660" height="1100" viewBox="0 0 1660 1100"><rect id="container" x="0" y="0" width="230" height="180" fill="none" stroke="#888" stroke-width="0.3"/><g id="part-1" transform="translate(260,30)"><rect width="20" height="20"/><rect x="35" y="10" width="15" height="15"/></g><g id="part-2" transform="translate(370,30)"><rect width="20" height="20"/><rect x="35" y="10" width="15" height="15"/></g><g id="part-3" transform="translate(480,30)"><rect width="20" height="20"/><rect x="35" y="10" width="15" height="15"/></g><g id="part-4" transform="translate(590,30)"><rect width="20" height="20"/><rect x="35" y="10" width="15" height="15"/></g><g id="part-5" transform="translate(700,30)"><rect width="20" height="20"/><rect x="35" y="10" width="15" height="15"/></g><g id="part-6" transform="translate(810,30)"><rect width="20" height="20"/><rect x="35" y="10" width="15" height="15"/></g><g id="part-7" transform="translate(920,30)"><rect width="20" height="20"/><rect x="35" y="10" width="15" height="15"/></g><g id="part-8" transform="translate(1030,30)"><rect width="20" height="20"/><rect x="35" y="10" width="15" height="15"/></g><g id="part-9" transform="translate(1140,30)"><rect width="20" height="20"/><rect x="35" y="10" width="15" height="15"/></g><g id="part-10" transform="translate(1250,30)"><rect width="20" height="20"/><rect x="35" y="10" width="15" height="15"/></g><g id="part-11" transform="translate(260,140)"><rect width="20" height="20"/><rect x="35" y="10" width="15" height="15"/></g><g id="part-12" transform="translate(370,140)"><rect width="20" height="20"/><rect x="35" y="10" width="15" height="15"/></g><g id="part-13" transform="translate(480,140)"><rect width="20" height="20"/><rect x="35" y="10" width="15" height="15"/></g><g id="part-14" transform="translate(590,140)"><rect width="20" height="20"/><rect x="35" y="10" width="15" height="15"/></g><g id="part-15" transform="translate(700,140)"><rect width="20" height="20"/><rect x="35" y="10" width="15" height="15"/></g></svg>